<?xml version="1.0" standalone="no"?>
<!DOCTYPE svg PUBLIC "-//W3C//DTD SVG 20010904//EN"
 "http://www.w3.org/TR/2001/REC-SVG-20010904/DTD/svg10.dtd">
<svg version="1.0" xmlns="http://www.w3.org/2000/svg"
 width="300.000000pt" height="300.000000pt" viewBox="0 0 300.000000 300.000000"
 preserveAspectRatio="xMidYMid meet">
<metadata>
Created by potrace 1.10, written by Peter Selinger 2001-2011
</metadata>
<g transform="translate(0.000000,300.000000) scale(0.100000,-0.100000)"
fill="#000000" stroke="none">
<path d="M1157 2969 c-67 -16 -79 -24 -201 -141 -106 -103 -127 -118 -164
-123 -230 -31 -321 -75 -377 -186 -27 -53 -55 -153 -55 -198 0 -17 -4 -31 -8
-31 -4 0 -14 -15 -20 -34 -11 -31 -49 -69 -163 -165 -37 -31 -88 -99 -93 -123
-2 -7 -8 -26 -14 -41 -18 -42 -16 -65 13 -187 2 -8 13 -46 24 -85 12 -38 21
-82 21 -98 0 -29 -30 -129 -57 -187 -22 -47 -29 -168 -13 -225 7 -25 16 -45
20 -45 4 0 13 -13 20 -29 6 -16 52 -68 102 -115 100 -95 111 -117 129 -244 6
-42 15 -79 20 -80 5 -2 7 -7 4 -12 -8 -13 33 -96 67 -133 46 -50 115 -82 244
-113 124 -29 125 -30 223 -147 36 -42 68 -74 72 -71 5 2 13 -4 18 -15 6 -10
30 -29 53 -42 62 -34 190 -32 308 3 88 27 148 36 165 26 9 -5 111 -40 128 -44
4 -1 9 -3 12 -4 3 -1 8 -3 13 -4 4 -1 12 -4 17 -7 25 -15 117 -30 147 -24 80
17 137 54 235 153 54 55 109 103 122 107 25 8 178 42 221 50 81 14 156 75 195
159 14 28 34 91 45 140 27 118 43 148 103 199 90 75 157 141 157 153 0 7 7 17
16 22 9 5 15 11 14 13 -1 2 4 18 10 34 14 34 7 192 -8 221 -20 37 -42 127 -42
170 0 24 9 66 20 94 11 27 17 50 14 50 -4 0 -1 6 6 14 19 23 40 116 40 177 0
85 -35 146 -151 260 -104 102 -117 126 -134 253 -13 93 -43 171 -86 220 -22
25 -47 46 -54 46 -7 0 -18 6 -24 13 -10 13 -78 38 -111 42 -38 4 -129 30 -166
47 -25 11 -61 44 -95 85 -62 75 -129 143 -142 143 -5 0 -20 9 -34 19 -13 11
-45 23 -70 27 -49 7 -179 -11 -189 -27 -3 -5 -16 -9 -30 -9 -13 0 -24 -5 -24
-11 0 -6 -7 -9 -15 -6 -8 4 -16 3 -19 -2 -15 -24 -195 5 -242 40 -14 11 -133
39 -159 38 -11 -1 -37 -5 -58 -10z m203 -65 c73 -34 142 -54 183 -54 21 0 92
16 158 36 92 28 131 35 168 31 83 -9 154 -61 241 -175 60 -79 99 -104 195
-126 157 -36 204 -55 247 -101 46 -49 74 -120 83 -209 13 -123 28 -152 139
-261 59 -59 110 -119 124 -146 32 -67 29 -142 -9 -249 -65 -177 -65 -176 -15
-345 48 -161 32 -244 -65 -332 -197 -180 -183 -158 -229 -353 -40 -170 -115
-225 -345 -256 -85 -12 -116 -31 -217 -138 -89 -95 -101 -104 -165 -126 l-69
-23 -74 22 c-41 12 -104 34 -140 48 -72 28 -137 32 -196 12 -21 -7 -41 -14
-44 -14 -3 0 -23 -7 -45 -15 -22 -8 -80 -14 -130 -14 -73 -1 -97 3 -120 18
-36 23 -105 94 -160 163 -22 28 -54 61 -72 73 -28 19 -116 46 -183 55 -56 8
-138 47 -172 82 -49 50 -73 111 -87 216 -6 47 -19 103 -27 124 -9 22 -58 81
-114 138 -54 55 -109 120 -122 145 -39 76 -27 173 40 320 29 64 27 128 -7 243
-45 153 -48 186 -21 249 22 53 75 111 190 207 60 52 84 98 107 215 9 45 28
106 44 137 46 92 102 123 284 155 55 9 114 26 131 36 17 10 65 55 105 99 41
45 97 94 124 110 46 28 56 30 135 27 60 -2 98 -9 130 -24z"/>
</g>
</svg>
