<?xml version="1.0" standalone="no"?>
<!DOCTYPE svg PUBLIC "-//W3C//DTD SVG 20010904//EN"
 "http://www.w3.org/TR/2001/REC-SVG-20010904/DTD/svg10.dtd">
<svg version="1.0" xmlns="http://www.w3.org/2000/svg"
 width="300.000000pt" height="300.000000pt" viewBox="0 0 300.000000 300.000000"
 preserveAspectRatio="xMidYMid meet">
<metadata>
Created by potrace 1.10, written by Peter Selinger 2001-2011
</metadata>
<g transform="translate(0.000000,300.000000) scale(0.050000,-0.050000)"
fill="#000000" stroke="none">
<path d="M1440 5844 c-269 -71 -413 -206 -434 -410 l-11 -110 117 39 c259 87
620 22 831 -149 287 -234 318 -243 846 -228 477 13 500 19 720 183 327 243
630 288 1004 148 371 -139 471 -643 182 -920 l-100 -96 14 -525 c16 -628 31
-775 121 -1246 170 -888 171 -1284 3 -1483 -86 -102 -74 -114 104 -102 349 24
563 210 563 491 0 144 -11 190 -127 514 -81 226 -135 448 -182 740 -17 110
-37 227 -42 260 -40 227 -69 776 -69 1325 l0 624 95 49 c379 192 354 700 -43
874 -293 129 -660 59 -938 -178 -63 -54 -167 -124 -230 -156 l-114 -58 -550 0
-550 0 -118 55 c-65 31 -182 104 -260 163 -297 225 -520 277 -832 196z"/>
<path d="M1180 5222 c-473 -156 -587 -606 -208 -823 l113 -65 -11 -682 c-16
-986 -77 -1403 -287 -1988 -108 -300 -123 -450 -56 -564 221 -376 1086 -339
1218 52 50 148 275 210 761 210 490 0 729 -64 758 -205 74 -373 944 -413 1171
-53 l80 125 -10 334 c-6 183 -23 404 -38 490 -16 86 -61 333 -101 547 -86 466
-117 914 -98 1403 l13 333 56 41 c157 117 226 429 130 593 -194 331 -762 335
-1211 8 -199 -145 -307 -164 -824 -144 -509 19 -533 26 -746 206 -180 152
-530 242 -710 182z m429 -229 c56 -26 155 -93 221 -150 186 -160 276 -186 680
-198 640 -18 855 26 1090 223 290 244 771 237 896 -12 91 -181 -28 -397 -200
-363 -273 54 -576 0 -576 -101 0 -65 30 -72 180 -39 134 28 309 20 355 -18 19
-15 25 -155 25 -577 0 -599 13 -745 123 -1338 91 -495 117 -664 106 -682 -6
-9 -98 -11 -205 -5 -399 24 -640 -73 -817 -330 -2 -4 -61 11 -131 34 -328 107
-913 113 -1244 12 l-177 -54 -79 93 c-90 105 -139 137 -184 120 -66 -25 -56
-84 27 -167 136 -136 109 -341 -52 -402 -354 -135 -807 -5 -807 231 0 304 566
423 629 133 38 -174 -200 -294 -320 -162 -75 83 -180 20 -120 -72 161 -247
591 -118 591 177 0 281 -294 444 -615 343 -43 -13 -45 -11 -24 44 159 417 258
1250 259 2170 0 512 -12 477 171 477 117 0 295 -58 377 -122 75 -59 142 -44
142 31 0 137 -413 280 -669 231 -425 -80 -511 412 -91 523 101 26 330 0 439
-50z m2801 -3451 c313 -180 135 -519 -282 -538 -451 -21 -674 235 -396 454 75
59 78 56 78 -83 0 -200 122 -315 333 -315 165 0 247 50 247 150 0 99 -40 112
-125 41 -125 -105 -325 -37 -325 109 0 50 47 179 66 180 2 0 40 14 84 30 94
35 232 23 320 -28z"/>
<path d="M1595 4007 c-40 -11 -49 -106 -10 -110 14 -1 67 0 118 2 59 3 128
-11 186 -36 105 -47 156 -38 147 25 -12 84 -297 161 -441 119z"/>
<path d="M3680 3999 c-121 -51 -177 -179 -65 -149 30 8 106 19 169 24 130 11
181 49 132 99 -39 38 -171 53 -236 26z"/>
<path d="M1692 3675 c-89 -67 -12 -98 307 -121 68 -5 77 54 16 95 -70 45 -275
62 -323 26z"/>
<path d="M3673 3675 c-74 -55 -34 -106 78 -98 116 8 148 29 117 79 -28 43
-146 55 -195 19z"/>
<path d="M2520 3650 c-61 -74 3 -90 357 -90 346 1 392 9 380 72 -10 53 -694
69 -737 18z"/>
<path d="M1808 3458 c-179 -51 -156 -143 32 -125 92 8 207 1 353 -23 188 -31
252 -33 506 -13 160 12 488 27 730 33 448 10 500 20 459 85 -30 48 -136 65
-267 43 -61 -10 -254 -18 -428 -18 -174 0 -422 -10 -550 -22 -209 -20 -258
-18 -476 20 -267 46 -270 46 -359 20z"/>
<path d="M1811 3177 c-85 -19 -151 -67 -151 -109 0 -46 39 -51 142 -17 94 31
115 31 344 -2 192 -27 292 -31 474 -18 228 17 320 17 925 6 329 -7 395 9 365
86 -10 25 -70 31 -346 35 -625 10 -754 9 -974 -7 -166 -12 -276 -8 -449 17
-126 17 -234 31 -240 30 -6 -1 -47 -10 -90 -21z"/>
<path d="M1723 2902 c-72 -46 -14 -89 183 -134 193 -44 210 -44 1074 -30 898
15 940 19 940 93 0 44 -3 44 -909 29 -816 -14 -891 -12 -1058 22 -206 44 -195
43 -230 20z"/>
<path d="M1630 2620 c-36 -57 11 -95 129 -104 88 -6 135 -22 188 -62 135 -104
215 -34 87 76 -108 94 -366 151 -404 90z"/>
<path d="M3660 2621 c-140 -42 -289 -168 -277 -232 12 -59 43 -53 153 30 86
64 129 82 227 93 125 14 162 44 117 98 -26 32 -135 37 -220 11z"/>
<path d="M2167 2570 c-28 -73 28 -92 261 -86 222 6 222 6 222 56 l0 50 -235 6
c-198 4 -238 0 -248 -26z"/>
<path d="M1541 2345 c-79 -64 -36 -110 89 -94 117 14 212 -21 251 -92 27 -51
106 -45 116 8 26 136 -334 277 -456 178z"/>
<path d="M3690 2358 c-73 -42 -170 -145 -170 -180 0 -65 64 -62 135 6 64 63
74 66 221 66 155 0 235 58 135 97 -69 26 -282 34 -321 11z"/>
<path d="M2193 2334 c-100 -73 -26 -94 330 -94 355 0 401 12 337 90 -33 40
-613 44 -667 4z"/>
<path d="M2960 2330 c-56 -67 -10 -90 177 -90 187 0 237 26 181 93 -33 40
-324 38 -358 -3z"/>
<path d="M3180 2106 c-155 -25 -414 -25 -950 0 -73 4 -80 0 -80 -46 0 -81 155
-103 660 -92 534 11 724 53 651 141 -30 36 -51 36 -281 -3z"/>
</g>
</svg>
